PathFileType	4	(X/Y/Z)	Kaydara																																																																																																																									
DataRate	CameraRate	NumFrames	NumMarkers	Units	OrigDataRate	OrigDataStartFrame	OrigNumFrames																																																																																																																					
30	30	8	41	mm	30	149	147																																																																																																																					
Frame#	Time	PAIB_LFHD			PAIB_RFHD			PAIB_LBHD			PAIB_RBHD			PAIB_LFTShould			PAIB_RFTShould			PAIB_LRRShould			PAIB_RRRShould			PAIB_T10			PAIB_STRN			PAIB_TRUN			PAIB_LSHO			PAIB_LUPA			PAIB_LELB			PAIB_LFRM			PAIB_LWRA			PAIB_LWRB			PAIB_LFIN			PAIB_RSHO			PAIB_RUPA			PAIB_RELB			PAIB_RFRM			PAIB_RWRA			PAIB_RWRB			PAIB_RFIN			PAIB_LFWT			PAIB_RFWT			PAIB_LBWT			PAIB_RBWT			PAIB_LTHI			PAIB_LKNE			PAIB_LSHN			PAIB_LANK			PAIB_LHEE			PAIB_LTOE			PAIB_RTHI			PAIB_RKNE			PAIB_RSHN			PAIB_RANK			PAIB_RHEE			PAIB_RTOE		
		X1	Y1	Z1	X2	Y2	Z2	X3	Y3	Z3	X4	Y4	Z4	X5	Y5	Z5	X6	Y6	Z6	X7	Y7	Z7	X8	Y8	Z8	X9	Y9	Z9	X10	Y10	Z10	X11	Y11	Z11	X12	Y12	Z12	X13	Y13	Z13	X14	Y14	Z14	X15	Y15	Z15	X16	Y16	Z16	X17	Y17	Z17	X18	Y18	Z18	X19	Y19	Z19	X20	Y20	Z20	X21	Y21	Z21	X22	Y22	Z22	X23	Y23	Z23	X24	Y24	Z24	X25	Y25	Z25	X26	Y26	Z26	X27	Y27	Z27	X28	Y28	Z28	X29	Y29	Z29	X30	Y30	Z30	X31	Y31	Z31	X32	Y32	Z32	X33	Y33	Z33	X34	Y34	Z34	X35	Y35	Z35	X36	Y36	Z36	X37	Y37	Z37	X38	Y38	Z38	X39	Y39	Z39	X40	Y40	Z40	X41	Y41	Z41
																																																																																																																												
111	4.937	300.13702	1652.79663	1148.56979	115.98668	1653.09296	1139.12201	314.34231	1613.87939	1026.29105	111.46941	1626.81015	1026.30547	271.62348	1383.8385	1157.82883	149.0685	1382.42111	1156.50032	281.38304	1443.00079	1010.88501	126.27229	1443.74588	1017.2258	200.54167	1283.73795	933.91632	216.8417	1318.62564	1196.52496	213.76785	1217.27661	1219.4101	402.17514	1389.23218	1078.05794	452.22752	1159.96552	1060.55626	466.28113	1079.31969	1013.73192	492.69012	964.1964	1041.19194	446.68556	837.50389	1119.9614	480.8979	829.68666	1047.39601	498.47065	786.52847	1104.11293	21.46914	1381.99127	1100.77217	-45.05936	1207.08984	1081.30035	-68.44554	1089.63707	1090.84785	-78.48753	963.78372	1156.93069	-9.71129	893.15788	1276.63322	-78.26984	863.26599	1236.55098	-66.33395	848.77785	1308.55743	314.03801	938.8311	1185.7666	80.36495	922.54662	1173.56415	268.82645	968.57483	962.37213	124.04697	961.04431	956.6777	311.07384	686.32675	1026.06094	316.89697	480.17563	1198.60886	272.60033	278.59322	1216.59042	267.75085	90.41305	1135.33508	215.07351	84.42289	1080.88203	237.28601	43.11729	1304.06281	75.24946	655.08102	1005.42046	30.70788	438.22689	1101.02562	100.22007	300.76777	984.18961	87.9316	247.5214	768.26691	153.75654	289.85859	752.5856	99.38443	88.78338	834.18015
112	4.97	300.31155	1659.77936	1190.81703	116.1743	1659.6199	1181.22742	314.62009	1621.60263	1068.42979	111.87214	1633.95538	1068.31131	270.54377	1392.41104	1199.90356	148.27604	1389.95697	1195.99426	283.87634	1450.68329	1052.91222	129.01678	1450.4985	1056.63742	205.93904	1290.53619	975.19875	215.66568	1326.6333	1237.30637	213.09334	1225.10986	1260.39536	403.11424	1398.49152	1123.4877	455.48622	1169.67773	1114.99718	472.94315	1087.60765	1071.38077	497.37572	973.61519	1107.8756	447.57679	853.55286	1194.07082	484.45847	839.94186	1123.70262	499.92367	801.87614	1184.66492	20.98882	1389.07623	1136.64505	-42.55519	1213.13248	1108.65028	-63.43529	1094.80362	1111.97617	-75.55188	964.95125	1168.91586	-11.16108	885.74646	1286.71783	-78.31808	858.76747	1241.0463	-69.13141	838.63731	1312.1225	319.01611	944.31694	1225.92003	85.19746	935.14053	1218.9785	268.1246	976.77338	1004.24667	123.89579	970.69931	1001.4296	308.85685	695.55038	1053.63441	318.94958	478.50433	1206.19667	273.91403	277.37335	1220.34363	267.45565	91.11231	1135.85106	214.68678	85.68602	1081.39175	237.19797	42.75725	1304.39087	69.58811	662.10739	1070.26939	27.53581	454.92256	1185.09171	95.89843	308.06683	1078.86925	90.2389	242.92042	869.19357	158.85974	276.66025	850.59891	84.69452	92.04548	949.80751
113	5.003	300.0695	1664.59991	1232.82234	115.87863	1663.57025	1222.84607	314.66	1627.59399	1110.3109	111.81376	1639.02298	1109.71581	269.78012	1399.49295	1241.16562	147.99654	1395.44342	1235.44754	285.88581	1456.30859	1094.22981	131.4096	1454.89777	1096.03249	210.84967	1295.02274	1016.35818	215.36953	1333.15338	1278.23288	213.78574	1231.93382	1301.95618	403.90652	1406.64505	1167.5914	460.15625	1178.98209	1167.98508	480.05257	1095.45067	1128.42934	501.67145	983.16734	1174.76326	447.8426	871.36452	1269.41444	486.69491	851.41228	1201.21094	499.84249	818.78922	1265.92865	20.53355	1394.01184	1172.57355	-40.98053	1218.32764	1134.22234	-59.49826	1099.0654	1131.89293	-73.29515	965.73181	1179.19357	-13.99201	878.13576	1293.50037	-78.53968	854.58359	1243.42995	-72.90875	829.17488	1312.91748	324.40609	947.29065	1265.9391	90.22166	943.79883	1262.51183	265.75958	982.01569	1045.10086	122.22836	975.94398	1044.74716	304.78481	704.64287	1080.23399	319.28783	476.95377	1214.63348	274.13738	276.96032	1222.85873	267.22	91.65367	1135.85136	214.52148	86.74173	1081.61316	237.69304	42.76251	1304.34067	59.14053	667.58423	1128.7468	26.70256	469.56135	1264.26392	92.75488	309.24314	1176.63864	87.28587	215.03605	975.43236	158.29441	246.71865	954.05586	79.71136	83.49191	1080.99495
114	5.037	299.60529	1665.92407	1274.56924	115.40144	1663.58871	1264.3766	314.79927	1630.16266	1151.92894	111.72042	1639.98352	1151.07689	269.11448	1402.50519	1282.3912	147.79282	1396.82495	1275.13	287.39267	1458.23257	1135.24445	133.2699	1455.36392	1135.718	214.87036	1295.82932	1057.55821	215.04871	1335.57037	1319.09851	214.21951	1234.57115	1343.4108	404.41982	1411.07819	1210.95947	464.76772	1185.36507	1220.59494	486.85894	1100.30594	1184.8275	506.00521	990.73936	1241.09016	448.15716	888.79593	1344.05029	488.13297	861.94359	1278.84171	499.29237	835.21904	1346.32599	20.42518	1394.74472	1209.82758	-39.20305	1220.25253	1161.47392	-57.27791	1101.25854	1152.93594	-72.55565	965.18059	1190.73456	-17.09289	870.26672	1302.13547	-79.05031	849.30641	1246.57715	-76.4732	818.96118	1314.26849	328.48408	945.79369	1304.98093	94.25996	947.19902	1305.08408	263.37397	982.15645	1084.77859	120.25732	976.40335	1086.89651	300.43795	711.84608	1106.80519	320.8223	475.64945	1220.22812	277.74982	276.36185	1223.44711	265.97395	92.15346	1135.31578	212.65169	87.71378	1082.23145	238.59827	42.57145	1304.38492	47.72393	669.93019	1185.00496	30.38265	477.92107	1339.53049	93.33112	304.91535	1275.06111	82.18155	176.10237	1093.95676	153.34157	204.47792	1064.66599	78.42202	69.98234	1222.59483
115	5.07	299.05167	1663.24295	1316.33911	114.89241	1659.97452	1306.26587	314.42373	1628.09158	1193.50937	111.23446	1636.79367	1192.87888	268.70289	1400.2861	1324.3367	147.51959	1393.43521	1315.32303	288.78201	1455.89279	1176.58813	134.65973	1451.83044	1175.73807	218.24055	1292.45819	1099.20273	214.43235	1332.70966	1360.07233	214.03465	1231.72134	1384.30695	404.49566	1410.62851	1254.34021	469.53545	1187.17773	1271.0997	493.43498	1101.26755	1240.61905	510.0124	995.54085	1306.67343	448.12077	904.55154	1417.25342	488.31188	870.91141	1355.289	498.10902	850.34546	1425.49286	20.74633	1390.84579	1248.1295	-37.70083	1218.3651	1191.46996	-56.12666	1100.37514	1176.83311	-72.85518	962.38892	1205.26573	-20.15219	859.81674	1311.30432	-80.89139	842.8212	1252.67654	-79.499	807.52983	1318.15872	331.06049	941.05125	1343.74756	97.0534	946.62758	1347.95685	260.69082	978.22388	1124.55383	117.90675	973.32474	1129.72801	298.93652	716.29433	1133.03452	324.14009	474.3829	1223.52982	279.69028	276.11002	1225.36743	265.42929	92.90885	1135.29236	211.82589	89.73155	1083.08372	239.44462	42.15101	1304.46152	39.74611	670.66025	1238.71719	35.90495	481.66595	1406.99677	96.11081	297.49569	1371.81046	76.69415	132.2893	1223.71437	147.45221	155.0295	1185.52795	76.1946	60.128	1371.44577
116	5.103	298.3407	1657.64664	1358.55789	114.19058	1653.59818	1348.30917	313.85248	1622.53067	1235.78651	110.62585	1630.23392	1235.09872	268.37263	1393.9183	1366.69418	147.11616	1386.58539	1356.18057	289.81295	1450.26581	1218.89046	135.64542	1445.53604	1216.54678	220.41561	1286.45416	1141.23566	213.98579	1325.91629	1401.4624	213.9636	1224.71931	1424.82956	404.15066	1405.58838	1298.67569	473.65646	1184.65637	1322.17407	499.62875	1098.18687	1295.82565	513.27946	997.52686	1371.19934	447.2422	917.63275	1487.51129	488.57903	878.56293	1429.71252	496.35147	864.06967	1501.97723	21.00705	1383.49075	1287.09839	-36.89756	1213.0748	1224.14505	-55.10935	1096.08055	1204.61174	-73.25211	957.21184	1223.39935	-22.04035	846.71524	1322.21069	-83.17141	834.87373	1262.26349	-82.60454	794.69238	1324.86435	332.28088	933.6808	1382.93823	99.01915	941.84082	1391.46454	257.62253	972.86667	1164.93935	114.60411	967.89001	1172.69371	299.49711	719.77196	1161.30302	326.29509	475.1387	1232.49626	280.58954	274.75122	1230.88715	264.28436	94.00283	1135.79185	209.54554	91.63774	1084.7551	240.1119	41.79615	1304.32999	40.87228	667.58278	1291.93146	40.6618	478.56827	1462.21466	97.22771	289.83549	1465.8638	71.12258	95.25745	1362.08649	142.25657	108.56271	1318.0011	72.06272	57.98545	1520.63904
117	5.137	297.20449	1650.04471	1401.37604	113.13699	1645.26566	1390.91339	313.01098	1614.74487	1278.61145	109.62437	1621.63223	1277.6757	267.85034	1385.51254	1409.41467	146.2315	1377.97974	1397.97363	289.92281	1442.63382	1261.34995	135.64548	1437.46841	1258.23608	221.07119	1278.73421	1183.51585	213.51664	1317.35168	1443.8121	213.95973	1216.06476	1466.7749	402.85629	1397.44247	1342.88528	475.9116	1179.22249	1373.03665	504.23244	1092.83768	1350.60974	515.40882	997.79579	1434.09195	445.73124	928.21846	1554.35745	488.45535	883.68935	1502.04697	494.54891	876.39297	1574.76883	20.83315	1374.29001	1327.47787	-36.116	1205.74463	1259.08356	-53.93207	1089.83063	1235.27184	-73.70493	950.87852	1245.72098	-24.14783	833.55156	1337.38632	-86.00228	826.81587	1276.93062	-85.28646	781.97418	1336.33514	332.43576	925.56023	1423.16742	99.85371	933.38783	1435.65018	254.24685	966.14716	1207.30133	111.1799	960.29861	1216.20522	298.88531	720.52864	1193.10356	326.03001	474.66625	1250.3006	279.57109	272.8043	1241.17889	262.17382	95.84273	1138.40858	207.1594	95.20785	1088.19138	240.36325	41.49103	1305.47256	50.52366	658.76472	1337.44888	44.52364	469.05506	1508.49472	96.17129	287.40782	1554.83643	66.01693	74.61695	1501.37863	135.59655	77.29979	1454.15771	71.06548	67.13194	1667.39578
118	5.17	295.56662	1641.81915	1444.60281	111.48744	1636.42014	1433.77045	311.71616	1606.36261	1321.94946	108.47061	1612.53464	1320.43808	266.9512	1377.09579	1453.5289	145.01607	1369.05182	1440.96649	289.07032	1434.62723	1304.80865	134.64552	1429.06006	1301.58035	220.09876	1270.73593	1226.05431	212.67645	1308.47137	1486.98074	213.30482	1207.00699	1509.31458	401.24153	1388.51547	1386.4386	476.30302	1172.84218	1422.03644	506.66359	1086.75621	1403.12515	516.38306	997.38129	1493.20145	444.61292	936.64299	1616.69678	488.39134	888.44269	1568.5672	493.05264	886.72966	1641.75201	19.5487	1365.31464	1369.94934	-35.6141	1198.20847	1296.06873	-53.00863	1083.20335	1269.2672	-74.13241	944.63997	1272.43591	-26.05191	821.95366	1356.72165	-88.25628	819.43924	1297.16354	-87.47518	770.52177	1353.66959	332.25281	918.0658	1464.60175	99.93933	923.70987	1480.50812	251.52645	959.28619	1250.09506	108.48495	950.99144	1260.90904	295.173	721.21742	1229.09973	323.95454	470.80929	1276.53809	279.14267	271.69607	1254.22073	260.02142	100.16353	1141.88278	204.07318	101.59627	1093.11386	240.36997	41.21376	1306.49597	58.0016	646.50558	1371.92596	47.82043	455.54073	1548.92212	98.30894	291.75375	1633.23898	63.3544	76.44805	1629.3663	132.44435	65.60854	1575.99976	77.21461	96.06871	1792.91245
